<svg width="12" height="12" viewBox="0 0 12 12" fill="none" xmlns="http://www.w3.org/2000/svg">
<path d="M2.5641 12H0V3.4359H2.5641V12ZM12 12H9.4359V7.4359C9.4359 6.20513 8.97436 5.64102 8.15385 5.64102C7.48718 5.64102 7.07692 5.94872 6.87179 6.61538V12H4.30769C4.30769 12 4.30769 4.30769 4.30769 3.4359H6.30769L6.46154 5.1282H6.51282C7.02564 4.30769 7.89743 3.69231 9.02564 3.69231C9.89743 3.69231 10.6154 3.94872 11.1795 4.5641C11.6923 5.17949 12 6 12 7.17949V12V12ZM2.61538 1.28205C2.61538 2 2.05128 2.5641 1.28205 2.5641C0.51282 2.5641 0 2 0 1.28205C0 0.564103 0.564103 0 1.28205 0C2 0 2.61538 0.615385 2.61538 1.28205Z" fill="#949494"/>
</svg>
