<svg width="15" height="15" viewBox="0 0 15 15" fill="none" xmlns="http://www.w3.org/2000/svg">
<path d="M14.9983 7.5C14.9983 8.87427 14.663 10.1316 13.9926 11.2719C13.3222 12.4123 12.4041 13.3187 11.2381 13.9912C10.0722 14.6637 8.81882 15 7.47799 15C6.77843 15 6.07888 14.8977 5.37932 14.693C5.75824 14.1082 6.006 13.5819 6.1226 13.114C6.18089 12.8801 6.35578 12.193 6.64727 11.0526C6.79301 11.2866 7.04077 11.5058 7.39055 11.7105C7.74033 11.9152 8.10468 12.0029 8.48361 11.9737C9.27061 11.9737 9.97017 11.7544 10.5823 11.3158C11.1944 10.8772 11.6753 10.2632 12.0251 9.47368C12.3749 8.68421 12.5498 7.7924 12.5498 6.79825C12.5498 6.06725 12.3458 5.38012 11.9377 4.73684C11.5296 4.09357 10.9758 3.55263 10.2762 3.11404C9.57667 2.67544 8.74594 2.47076 7.78405 2.5C7.08449 2.5 6.44323 2.60234 5.86026 2.80702C5.2773 3.0117 4.78178 3.26023 4.3737 3.55263C3.96562 3.84503 3.60127 4.19591 3.28064 4.60526C2.96001 5.01462 2.7414 5.4386 2.6248 5.87719C2.50821 6.31579 2.44991 6.75439 2.44991 7.19298C2.44991 7.89474 2.56651 8.49415 2.79969 8.99123C3.03288 9.4883 3.42638 9.8538 3.9802 10.0877C4.15509 10.1754 4.27168 10.1023 4.32998 9.86842C4.35913 9.83918 4.38827 9.75146 4.41742 9.60526C4.44657 9.45906 4.47572 9.35673 4.50487 9.29825C4.53402 9.15205 4.49029 9.00585 4.3737 8.85965C4.05307 8.47953 3.89275 7.99708 3.89275 7.41228C3.89275 6.41813 4.22796 5.57018 4.89837 4.86842C5.56878 4.16667 6.4578 3.80117 7.56544 3.77193C8.55648 3.77193 9.32891 4.04971 9.88273 4.60526C10.4365 5.16082 10.7135 5.84795 10.7135 6.66667C10.7135 7.77778 10.4803 8.72807 10.0139 9.51754C9.54752 10.307 8.97913 10.6871 8.30872 10.6579C7.92979 10.6579 7.60916 10.5263 7.34683 10.2632C7.08449 10 7.01162 9.64912 7.12821 9.21053C7.18651 8.97661 7.27396 8.66959 7.39055 8.28947C7.50714 7.90936 7.60916 7.5731 7.69661 7.2807C7.78405 6.9883 7.8132 6.75439 7.78405 6.57895C7.78405 6.22807 7.69661 5.95029 7.52172 5.74561C7.34683 5.54094 7.09907 5.4386 6.77843 5.4386C6.37036 5.4386 6.03515 5.61404 5.77282 5.96491C5.51048 6.31579 5.36474 6.78363 5.33559 7.36842C5.33559 7.83626 5.42304 8.23099 5.59793 8.55263L4.63604 12.6754C4.51944 13.114 4.47572 13.6842 4.50487 14.386C3.16405 13.8012 2.07099 12.8801 1.22569 11.6228C0.380385 10.3655 -0.0276909 8.99123 0.00145741 7.5C0.00145741 6.12573 0.336663 4.86842 1.00707 3.72807C1.67748 2.58772 2.58108 1.68129 3.71786 1.00877C4.85465 0.336257 6.10802 0 7.47799 0C8.84796 0 10.1013 0.336257 11.2381 1.00877C12.3749 1.68129 13.2931 2.58772 13.9926 3.72807C14.6922 4.86842 15.0274 6.12573 14.9983 7.5V7.5Z" fill="#949494"/>
</svg>
