<svg width="15" height="15" viewBox="0 0 15 15" fill="none" xmlns="http://www.w3.org/2000/svg">
<mask id="mask0_29_17" style="mask-type:alpha" maskUnits="userSpaceOnUse" x="0" y="0" width="15" height="15">
<rect width="15" height="15" fill="#D9D9D9"/>
</mask>
<g mask="url(#mask0_29_17)">
<path d="M13.25 3.45C13.9 3.05 14.35 2.45 14.6 1.75C13.9 2.1 13.25 2.35 12.6 2.45C12.05 1.85 11.3 1.5 10.4 1.5C9.55 1.5 8.8 1.8 8.2 2.4C7.6 3 7.3 3.75 7.3 4.6C7.3 4.85 7.35 5.05 7.4 5.25C4.85 5.2 2.7 4.1 1.05 2.05C0.75 2.55 0.6 3.1 0.6 3.6C0.6 4.7 1.1 5.55 2 6.2C1.45 6.15 1 6 0.6 5.8C0.6 6.55 0.85 7.2 1.3 7.8C1.75 8.35 2.35 8.7 3.05 8.85C2.8 8.9 2.55 8.95 2.25 8.95C2 8.95 1.8 8.95 1.7 8.9C1.9 9.5 2.25 10.05 2.75 10.4C3.3 10.8 3.9 11 4.55 11.05C3.45 11.9 2.2 12.35 0.75 12.35C0.4 12.35 0.15 12.35 0 12.3C1.4 13.25 3 13.7 4.75 13.7C6.5 13.7 8.1 13.25 9.45 12.35C10.85 11.45 11.85 10.3 12.5 9C13.15 7.7 13.45 6.35 13.45 4.95V4.55C14.1 4.1 14.6 3.55 15 2.95C14.45 3.2 13.85 3.35 13.25 3.45V3.45Z" fill="#949494"/>
</g>
</svg>
